<svg width="179" height="179" viewBox="0 0 179 179" fill="none" xmlns="http://www.w3.org/2000/svg">
<rect width="179" height="179" fill="white"/>
<path d="M24.928 112V67.328H46.048C48.1387 67.328 50.016 67.6907 51.68 68.416C53.344 69.0987 54.752 70.0587 55.904 71.296C57.0987 72.5333 58.016 74.048 58.656 75.84C59.296 77.5893 59.616 79.5093 59.616 81.6C59.616 83.7333 59.296 85.6747 58.656 87.424C58.016 89.1733 57.0987 90.6667 55.904 91.904C54.752 93.1413 53.344 94.1227 51.68 94.848C50.016 95.5307 48.1387 95.872 46.048 95.872H34.656V112H24.928ZM34.656 87.424H44.896C46.3467 87.424 47.4773 87.0613 48.288 86.336C49.1413 85.568 49.568 84.4587 49.568 83.008V80.192C49.568 78.7413 49.1413 77.6533 48.288 76.928C47.4773 76.16 46.3467 75.776 44.896 75.776H34.656V87.424ZM65.791 112V78.4H75.263V85.696H75.583C75.7537 84.7573 76.0523 83.8613 76.479 83.008C76.9057 82.112 77.4603 81.3227 78.143 80.64C78.8683 79.9573 79.7217 79.424 80.703 79.04C81.6843 78.6133 82.8363 78.4 84.159 78.4H85.823V87.232H83.455C80.6817 87.232 78.6123 87.5947 77.247 88.32C75.9243 89.0453 75.263 90.3893 75.263 92.352V112H65.791ZM104.986 112.768C102.511 112.768 100.292 112.363 98.3295 111.552C96.4095 110.741 94.7668 109.568 93.4015 108.032C92.0788 106.496 91.0548 104.64 90.3295 102.464C89.6042 100.288 89.2415 97.856 89.2415 95.168C89.2415 92.48 89.6042 90.048 90.3295 87.872C91.0548 85.696 92.0788 83.8613 93.4015 82.368C94.7668 80.832 96.4095 79.6587 98.3295 78.848C100.292 78.0373 102.511 77.632 104.986 77.632C107.46 77.632 109.658 78.0373 111.578 78.848C113.54 79.6587 115.183 80.832 116.506 82.368C117.871 83.8613 118.916 85.696 119.642 87.872C120.367 90.048 120.729 92.48 120.729 95.168C120.729 97.856 120.367 100.288 119.642 102.464C118.916 104.64 117.871 106.496 116.506 108.032C115.183 109.568 113.54 110.741 111.578 111.552C109.658 112.363 107.46 112.768 104.986 112.768ZM104.986 105.28C106.863 105.28 108.314 104.704 109.338 103.552C110.362 102.4 110.874 100.757 110.874 98.624V91.776C110.874 89.6427 110.362 88 109.338 86.848C108.314 85.696 106.863 85.12 104.986 85.12C103.108 85.12 101.658 85.696 100.634 86.848C99.6095 88 99.0975 89.6427 99.0975 91.776V98.624C99.0975 100.757 99.6095 102.4 100.634 103.552C101.658 104.704 103.108 105.28 104.986 105.28Z" fill="#363636"/>
<path d="M121.17 124.16V116.288H152.914V124.16H121.17Z" fill="#05A5A6"/>
</svg>
