<svg version="1.1" id="Layer_1" xmlns="http://www.w3.org/2000/svg" xmlns:xlink="http://www.w3.org/1999/xlink" x="0px" y="0px"
	 width="100%" viewBox="0 0 460 460" enable-background="new 0 0 460 460" xml:space="preserve">
<path fill="#FFFFFF" opacity="1.000000" stroke="none" 
	d="
M461.000000,226.000000 
	C461.000000,304.645416 461.000000,382.790863 461.000000,460.968140 
	C307.729553,460.968140 154.459122,460.968140 1.094340,460.968140 
	C1.094340,307.771271 1.094340,154.542465 1.094340,1.156826 
	C154.333206,1.156826 307.666595,1.156826 461.000000,1.156826 
	C461.000000,75.874161 461.000000,150.687073 461.000000,226.000000 
M33.260780,282.742767 
	C37.743977,294.851227 42.227177,306.959686 46.899185,319.772186 
	C55.950096,337.727661 66.635300,354.567780 80.921288,369.774536 
	C84.983147,373.847534 88.876091,378.107574 93.139572,381.957245 
	C104.440247,392.161133 116.630913,401.043274 129.904938,408.693115 
	C146.323914,418.155396 163.656998,424.885986 181.887848,429.543213 
	C227.385208,441.165985 271.496826,436.497284 314.375488,417.979828 
	C340.085358,406.876770 361.623993,389.956451 381.636719,369.784912 
	C385.144287,365.588074 388.802277,361.506805 392.131866,357.173218 
	C403.069061,342.938171 412.694244,327.915680 419.624847,310.571045 
	C426.989288,292.387390 432.346497,273.682465 434.693512,253.370453 
	C434.979797,249.411636 435.664764,245.434143 435.480438,241.497375 
	C434.832275,227.656570 433.885284,213.829773 433.096832,199.159409 
	C430.921356,190.450607 428.792664,181.729752 426.550720,173.038086 
	C425.422882,168.665695 424.089417,164.346329 422.774414,159.289551 
	C422.161438,157.797882 421.647491,156.255875 420.919220,154.822800 
	C416.539948,146.205215 412.111511,137.612640 407.527008,128.360184 
	C400.269348,118.242668 393.011688,108.125145 385.614197,97.375214 
	C377.505615,89.547081 369.397064,81.718948 360.927643,73.300407 
	C350.708801,66.484825 340.489929,59.669250 329.838623,52.305412 
	C312.326477,42.008774 293.326508,35.757618 273.606995,31.321623 
	C250.120392,26.038198 226.432480,24.881815 202.771515,28.975014 
	C189.087631,31.342243 175.442062,34.717396 162.296799,39.167622 
	C151.421417,42.849400 141.304855,48.772636 130.179886,53.942268 
	C121.433357,59.898788 112.686836,65.855309 103.271347,71.990723 
	C93.821281,81.317268 84.371223,90.643822 74.329201,100.279533 
	C72.663887,102.345139 70.823135,104.294640 69.365234,106.497505 
	C64.447334,113.928413 59.665436,121.449318 54.265545,129.308640 
	C44.091316,144.829346 38.299740,162.156418 33.112991,180.508560 
	C28.096415,201.051727 25.538324,221.830170 27.022074,243.884460 
	C29.090693,256.590698 31.159313,269.296936 33.260780,282.742767 
z"/>
<path fill="#38A0F2" opacity="1.000000" stroke="none" 
	d="
M80.607361,369.164795 
	C66.635300,354.567780 55.950096,337.727661 47.236969,319.438049 
	C49.527657,319.402100 51.488941,319.995148 53.431808,319.939972 
	C58.154007,319.805817 62.864365,319.300720 67.585770,319.078400 
	C71.397003,318.899017 75.217667,318.843384 79.033669,318.857941 
	C87.538002,318.890381 96.042664,319.101837 104.546021,319.049652 
	C112.002716,319.003876 119.456963,318.643799 126.913918,318.524261 
	C132.971054,318.427124 139.030624,318.485992 145.089066,318.461395 
	C145.893860,318.458130 146.704834,318.279419 147.501923,318.336304 
	C154.899796,318.864258 162.287521,319.606232 169.693726,319.923065 
	C176.017975,320.193573 182.364670,320.075012 188.696701,319.926483 
	C190.181946,319.891663 191.648071,319.041718 193.510193,318.682190 
	C203.740891,320.127808 213.566711,322.424652 223.431244,322.605042 
	C251.845505,323.124664 280.275391,322.790009 308.699127,322.790863 
	C317.751526,322.791138 317.744354,322.790955 317.806061,313.975677 
	C317.815338,312.649963 317.927734,311.325012 318.461487,309.999878 
	C352.320770,310.220337 385.726379,308.927765 419.097443,311.021851 
	C412.694244,327.915680 403.069061,342.938171 392.131866,357.173218 
	C388.802277,361.506805 385.144287,365.588074 381.273041,369.533051 
	C379.274933,368.521118 377.665009,367.174988 376.001678,367.105316 
	C369.767120,366.844269 363.515076,367.000153 357.269592,367.000061 
	C348.190521,366.999878 339.110992,367.051788 330.032745,366.965820 
	C327.572906,366.942566 325.113251,366.260834 322.659943,366.298431 
	C314.239746,366.427399 305.760834,367.468719 297.422638,366.763306 
	C290.276459,366.158752 283.368652,367.700653 276.006653,366.714539 
	C263.560364,365.047363 250.664017,366.666626 237.960541,367.031189 
	C233.165451,367.168732 228.092361,368.840790 223.647522,367.756866 
	C212.426407,365.020447 201.178619,368.590668 189.896805,366.396851 
	C183.564667,365.165497 176.591980,367.327393 169.896484,367.798553 
	C168.133362,367.922607 166.328766,367.437012 164.541672,367.245667 
	C162.814178,367.060730 161.075333,366.680939 159.357712,366.756409 
	C151.908203,367.083832 144.466843,367.820770 137.018295,367.880035 
	C130.064926,367.935394 123.108444,367.254333 116.149033,367.031769 
	C112.239960,366.906738 108.321686,367.022736 104.408432,367.085052 
	C96.426521,367.212158 88.229874,364.919708 80.607361,369.164795 
z"/>
<path fill="#339CF1" opacity="1.000000" stroke="none" 
	d="
M80.764328,369.469666 
	C88.229874,364.919708 96.426521,367.212158 104.408432,367.085052 
	C108.321686,367.022736 112.239960,366.906738 116.149033,367.031769 
	C123.108444,367.254333 130.064926,367.935394 137.018295,367.880035 
	C144.466843,367.820770 151.908203,367.083832 159.357712,366.756409 
	C161.075333,366.680939 162.814178,367.060730 164.541672,367.245667 
	C166.328766,367.437012 168.133362,367.922607 169.896484,367.798553 
	C176.591980,367.327393 183.564667,365.165497 189.896805,366.396851 
	C201.178619,368.590668 212.426407,365.020447 223.647522,367.756866 
	C228.092361,368.840790 233.165451,367.168732 237.960541,367.031189 
	C250.664017,366.666626 263.560364,365.047363 276.006653,366.714539 
	C283.368652,367.700653 290.276459,366.158752 297.422638,366.763306 
	C305.760834,367.468719 314.239746,366.427399 322.659943,366.298431 
	C325.113251,366.260834 327.572906,366.942566 330.032745,366.965820 
	C339.110992,367.051788 348.190521,366.999878 357.269592,367.000061 
	C363.515076,367.000153 369.767120,366.844269 376.001678,367.105316 
	C377.665009,367.174988 379.274933,368.521118 380.965149,369.672974 
	C361.623993,389.956451 340.085358,406.876770 314.375488,417.979828 
	C271.496826,436.497284 227.385208,441.165985 181.887848,429.543213 
	C163.656998,424.885986 146.323914,418.155396 129.904938,408.693115 
	C116.630913,401.043274 104.440247,392.161133 93.139572,381.957245 
	C88.876091,378.107574 84.983147,373.847534 80.764328,369.469666 
z"/>
<path fill="#4BAFF8" opacity="1.000000" stroke="none" 
	d="
M407.699524,129.011688 
	C412.111511,137.612640 416.539948,146.205215 420.919220,154.822800 
	C421.647491,156.255875 422.161438,157.797882 422.362793,159.645309 
	C415.229492,160.000702 408.507782,160.000137 401.786102,160.000031 
	C388.686523,159.999817 375.586548,160.050323 362.487640,159.957169 
	C359.873016,159.938568 357.256165,159.064621 354.650940,159.116638 
	C347.439331,159.260666 340.235382,159.841492 333.024292,159.935364 
	C329.252838,159.984451 325.474854,159.139877 321.696289,159.107422 
	C313.305908,159.035324 304.908722,159.103897 296.526550,159.429230 
	C295.292145,159.477142 294.124298,161.240158 292.625610,162.042770 
	C283.949219,155.158524 276.300476,147.130234 267.046570,141.993835 
	C247.158615,130.954971 225.333160,128.499252 202.978210,132.302933 
	C183.681412,135.586273 167.003250,144.496201 153.435257,158.466568 
	C147.185074,164.902115 142.413467,172.773666 136.559265,179.941895 
	C128.929871,179.593140 121.711967,179.036270 114.495514,179.054459 
	C99.714615,179.091721 84.934967,179.480774 70.153908,179.643021 
	C57.912888,179.777405 45.670578,179.794113 33.428841,179.862961 
	C38.299740,162.156418 44.091316,144.829346 54.982922,129.141571 
	C61.897831,128.649673 68.092468,128.138763 74.293549,128.042297 
	C84.370430,127.885506 94.451515,128.000000 104.530830,128.000000 
	C114.945175,128.000000 125.375809,128.369766 135.769989,127.911919 
	C150.750290,127.252068 165.714874,128.813690 180.733856,127.274017 
	C190.545135,126.268196 200.562317,127.236061 210.486511,127.375450 
	C223.231430,127.554466 235.974945,127.901344 248.720215,127.973343 
	C267.155853,128.077499 285.592499,128.000000 304.028717,128.000000 
	C314.274689,128.000000 324.520660,128.000259 334.766632,127.999924 
	C343.347687,127.999634 351.930573,127.885368 360.509430,128.022552 
	C376.240692,128.274094 391.969635,128.673782 407.699524,129.011688 
z"/>
<path fill="#4EB2F9" opacity="1.000000" stroke="none" 
	d="
M407.613281,128.685944 
	C391.969635,128.673782 376.240692,128.274094 360.509430,128.022552 
	C351.930573,127.885368 343.347687,127.999634 334.766632,127.999924 
	C324.520660,128.000259 314.274689,128.000000 304.028717,128.000000 
	C285.592499,128.000000 267.155853,128.077499 248.720215,127.973343 
	C235.974945,127.901344 223.231430,127.554466 210.486511,127.375450 
	C200.562317,127.236061 190.545135,126.268196 180.733856,127.274017 
	C165.714874,128.813690 150.750290,127.252068 135.769989,127.911919 
	C125.375809,128.369766 114.945175,128.000000 104.530830,128.000000 
	C94.451515,128.000000 84.370430,127.885506 74.293549,128.042297 
	C68.092468,128.138763 61.897831,128.649673 55.265915,128.955154 
	C59.665436,121.449318 64.447334,113.928413 69.365234,106.497505 
	C70.823135,104.294640 72.663887,102.345139 75.033783,100.133789 
	C82.980301,99.330437 90.213234,98.296791 97.466774,98.122765 
	C104.480774,97.954498 111.515373,98.686485 118.542549,98.984810 
	C119.699791,99.033943 120.865120,98.880951 122.027130,98.830963 
	C127.054588,98.614716 132.080429,98.309029 137.110229,98.213837 
	C142.293015,98.115753 147.479706,98.240341 152.664673,98.236412 
	C156.397446,98.233582 160.132050,98.089622 163.862549,98.167198 
	C171.889481,98.334145 179.914871,98.799721 187.939804,98.776138 
	C196.135040,98.752045 204.329269,98.072731 212.523392,98.083687 
	C219.549744,98.093094 226.574692,98.687683 233.601898,98.984375 
	C234.758820,99.033211 235.923889,98.871483 237.085831,98.822632 
	C242.113190,98.611198 247.139099,98.318375 252.168747,98.221954 
	C257.351105,98.122612 262.537170,98.227364 267.721619,98.222458 
	C271.454803,98.218918 275.189667,98.100075 278.920837,98.176826 
	C286.947693,98.341919 294.973236,98.791702 302.998199,98.766739 
	C311.193726,98.741226 319.387726,98.278412 327.583252,98.036949 
	C328.232971,98.017807 328.887543,98.308372 329.543335,98.326309 
	C336.912079,98.527779 344.281586,98.842667 351.650726,98.838966 
	C356.678680,98.836449 361.703857,98.272560 366.734894,98.152580 
	C373.072144,98.001442 379.414093,98.046959 385.753998,98.007629 
	C393.011688,108.125145 400.269348,118.242668 407.613281,128.685944 
z"/>
<path fill="#50B4FA" opacity="1.000000" stroke="none" 
	d="
M385.684082,97.691422 
	C379.414093,98.046959 373.072144,98.001442 366.734894,98.152580 
	C361.703857,98.272560 356.678680,98.836449 351.650726,98.838966 
	C344.281586,98.842667 336.912079,98.527779 329.543335,98.326309 
	C328.887543,98.308372 328.232971,98.017807 327.583252,98.036949 
	C319.387726,98.278412 311.193726,98.741226 302.998199,98.766739 
	C294.973236,98.791702 286.947693,98.341919 278.920837,98.176826 
	C275.189667,98.100075 271.454803,98.218918 267.721619,98.222458 
	C262.537170,98.227364 257.351105,98.122612 252.168747,98.221954 
	C247.139099,98.318375 242.113190,98.611198 237.085831,98.822632 
	C235.923889,98.871483 234.758820,99.033211 233.601898,98.984375 
	C226.574692,98.687683 219.549744,98.093094 212.523392,98.083687 
	C204.329269,98.072731 196.135040,98.752045 187.939804,98.776138 
	C179.914871,98.799721 171.889481,98.334145 163.862549,98.167198 
	C160.132050,98.089622 156.397446,98.233582 152.664673,98.236412 
	C147.479706,98.240341 142.293015,98.115753 137.110229,98.213837 
	C132.080429,98.309029 127.054588,98.614716 122.027130,98.830963 
	C120.865120,98.880951 119.699791,99.033943 118.542549,98.984810 
	C111.515373,98.686485 104.480774,97.954498 97.466774,98.122765 
	C90.213234,98.296791 82.980301,99.330437 75.329758,99.979210 
	C84.371223,90.643822 93.821281,81.317268 103.697266,72.312576 
	C105.590591,73.089561 107.055992,73.920273 108.525780,73.928123 
	C112.632256,73.950050 116.738968,73.533478 120.848442,73.467537 
	C129.467850,73.329239 138.089493,73.219276 146.709396,73.262581 
	C152.743484,73.292900 158.775116,73.674301 164.809799,73.757935 
	C172.204834,73.860413 179.603500,73.918892 186.997650,73.804649 
	C193.862564,73.698586 200.724701,73.118408 207.586029,73.152916 
	C215.069183,73.190536 222.547806,73.785912 230.032547,73.964432 
	C235.195175,74.087578 240.364761,73.902359 245.531357,73.879158 
	C250.298294,73.857750 255.067429,73.955582 259.831879,73.843376 
	C265.865234,73.701294 271.896149,73.185059 277.925720,73.221718 
	C285.459320,73.267525 292.991180,73.945946 300.522583,73.924767 
	C309.967041,73.898216 319.410278,73.224724 328.854095,73.222878 
	C339.665527,73.220772 350.477020,73.649361 361.288483,73.890816 
	C369.397064,81.718948 377.505615,89.547081 385.684082,97.691422 
z"/>
<path fill="#43A9F6" opacity="1.000000" stroke="none" 
	d="
M433.051758,199.997650 
	C433.885284,213.829773 434.832275,227.656570 435.480438,241.497375 
	C435.664764,245.434143 434.979797,249.411636 434.060242,253.740753 
	C431.139587,254.403488 428.847229,254.980362 426.565613,254.940521 
	C414.959473,254.737900 403.356659,254.166702 391.751587,254.136154 
	C382.678650,254.112274 373.606232,254.810623 364.529755,254.965942 
	C355.465942,255.121063 346.395172,255.123703 337.331726,254.958145 
	C330.880981,254.840317 324.437347,254.333038 317.910278,253.536499 
	C317.799255,235.841797 318.498596,218.565247 314.928497,201.198059 
	C315.631134,200.602753 316.046204,200.240417 316.505096,200.172012 
	C324.284027,199.012421 332.259888,202.005386 339.971100,199.070068 
	C340.373444,198.916916 340.939087,199.244904 341.432892,199.271622 
	C346.302094,199.535034 351.170227,199.922745 356.042633,199.989975 
	C360.061157,200.045425 364.086212,199.562881 368.106201,199.594315 
	C373.592621,199.637207 379.076599,200.093597 384.562225,200.105377 
	C400.725220,200.140091 416.888550,200.043091 433.051758,199.997650 
z"/>
<path fill="#44AAF6" opacity="1.000000" stroke="none" 
	d="
M33.270916,180.185760 
	C45.670578,179.794113 57.912888,179.777405 70.153908,179.643021 
	C84.934967,179.480774 99.714615,179.091721 114.495514,179.054459 
	C121.711967,179.036270 128.929871,179.593140 136.525803,180.307251 
	C127.725975,200.117615 122.876587,220.242188 126.153984,241.864319 
	C118.607056,242.270676 111.483604,242.945374 104.363945,242.907455 
	C92.408669,242.843811 80.457123,242.165527 68.501366,242.067307 
	C62.381859,242.017029 56.260086,242.820282 50.133114,242.955231 
	C42.469452,243.124008 34.799393,243.002274 27.132095,243.005936 
	C25.538324,221.830170 28.096415,201.051727 33.270916,180.185760 
z"/>
<path fill="#3EA5F4" opacity="1.000000" stroke="none" 
	d="
M317.990540,253.999557 
	C324.437347,254.333038 330.880981,254.840317 337.331726,254.958145 
	C346.395172,255.123703 355.465942,255.121063 364.529755,254.965942 
	C373.606232,254.810623 382.678650,254.112274 391.751587,254.136154 
	C403.356659,254.166702 414.959473,254.737900 426.565613,254.940521 
	C428.847229,254.980362 431.139587,254.403488 433.859161,254.101257 
	C432.346497,273.682465 426.989288,292.387390 419.361145,310.796448 
	C385.726379,308.927765 352.320770,310.220337 318.378540,309.537170 
	C317.881134,290.716064 317.935852,272.357819 317.990540,253.999557 
z"/>
<path fill="#48ADF7" opacity="1.000000" stroke="none" 
	d="
M433.074280,199.578522 
	C416.888550,200.043091 400.725220,200.140091 384.562225,200.105377 
	C379.076599,200.093597 373.592621,199.637207 368.106201,199.594315 
	C364.086212,199.562881 360.061157,200.045425 356.042633,199.989975 
	C351.170227,199.922745 346.302094,199.535034 341.432892,199.271622 
	C340.939087,199.244904 340.373444,198.916916 339.971100,199.070068 
	C332.259888,202.005386 324.284027,199.012421 316.505096,200.172012 
	C316.046204,200.240417 315.631134,200.602753 314.730835,200.862915 
	C309.892670,186.490112 302.935425,173.507965 292.925629,162.209625 
	C294.124298,161.240158 295.292145,159.477142 296.526550,159.429230 
	C304.908722,159.103897 313.305908,159.035324 321.696289,159.107422 
	C325.474854,159.139877 329.252838,159.984451 333.024292,159.935364 
	C340.235382,159.841492 347.439331,159.260666 354.650940,159.116638 
	C357.256165,159.064621 359.873016,159.938568 362.487640,159.957169 
	C375.586548,160.050323 388.686523,159.999817 401.786102,160.000031 
	C408.507782,160.000137 415.229492,160.000702 422.400055,160.002014 
	C424.089417,164.346329 425.422882,168.665695 426.550720,173.038086 
	C428.792664,181.729752 430.921356,190.450607 433.074280,199.578522 
z"/>
<path fill="#52B5FA" opacity="1.000000" stroke="none" 
	d="
M361.108063,73.595612 
	C350.477020,73.649361 339.665527,73.220772 328.854095,73.222878 
	C319.410278,73.224724 309.967041,73.898216 300.522583,73.924767 
	C292.991180,73.945946 285.459320,73.267525 277.925720,73.221718 
	C271.896149,73.185059 265.865234,73.701294 259.831879,73.843376 
	C255.067429,73.955582 250.298294,73.857750 245.531357,73.879158 
	C240.364761,73.902359 235.195175,74.087578 230.032547,73.964432 
	C222.547806,73.785912 215.069183,73.190536 207.586029,73.152916 
	C200.724701,73.118408 193.862564,73.698586 186.997650,73.804649 
	C179.603500,73.918892 172.204834,73.860413 164.809799,73.757935 
	C158.775116,73.674301 152.743484,73.292900 146.709396,73.262581 
	C138.089493,73.219276 129.467850,73.329239 120.848442,73.467537 
	C116.738968,73.533478 112.632256,73.950050 108.525780,73.928123 
	C107.055992,73.920273 105.590591,73.089561 104.031754,72.223129 
	C112.686836,65.855309 121.433357,59.898788 130.727219,54.127541 
	C138.619125,54.208538 145.965347,53.963474 153.307663,54.050163 
	C158.094879,54.106686 162.879974,54.960350 167.659805,54.906471 
	C180.045044,54.766857 192.425583,54.122841 204.810318,54.043076 
	C228.037064,53.893478 251.265533,53.970547 274.493073,54.033497 
	C277.773224,54.042389 281.056030,54.754089 284.330841,54.703197 
	C292.395538,54.577862 300.458008,54.239082 308.518188,53.908245 
	C315.771332,53.610531 323.020294,53.209259 330.271088,52.853668 
	C340.489929,59.669250 350.708801,66.484825 361.108063,73.595612 
z"/>
<path fill="#3DA4F4" opacity="1.000000" stroke="none" 
	d="
M193.122986,318.566772 
	C191.648071,319.041718 190.181946,319.891663 188.696701,319.926483 
	C182.364670,320.075012 176.017975,320.193573 169.693726,319.923065 
	C162.287521,319.606232 154.899796,318.864258 147.501923,318.336304 
	C146.704834,318.279419 145.893860,318.458130 145.089066,318.461395 
	C139.030624,318.485992 132.971054,318.427124 126.913918,318.524261 
	C119.456963,318.643799 112.002716,319.003876 104.546021,319.049652 
	C96.042664,319.101837 87.538002,318.890381 79.033669,318.857941 
	C75.217667,318.843384 71.397003,318.899017 67.585770,319.078400 
	C62.864365,319.300720 58.154007,319.805817 53.431808,319.939972 
	C51.488941,319.995148 49.527657,319.402100 47.142563,319.085999 
	C42.227177,306.959686 37.743977,294.851227 33.694942,282.372070 
	C46.868534,282.000885 59.608318,281.949799 72.347107,282.039612 
	C75.136642,282.059265 77.964523,283.037109 80.702393,282.785675 
	C88.879097,282.034882 96.988724,280.693878 105.186951,282.880524 
	C106.988510,283.361084 109.109108,282.602631 111.086647,282.474365 
	C116.947838,282.094208 122.813065,281.436401 128.672668,281.476562 
	C133.586288,281.510223 138.494202,282.371918 143.641891,283.097809 
	C150.093735,289.641205 155.553040,297.045593 162.709671,301.996460 
	C172.150406,308.527496 182.922958,313.133331 193.122986,318.566772 
z"/>
<path fill="#3EA5F4" opacity="1.000000" stroke="none" 
	d="
M143.404663,282.867004 
	C138.494202,282.371918 133.586288,281.510223 128.672668,281.476562 
	C122.813065,281.436401 116.947838,282.094208 111.086647,282.474365 
	C109.109108,282.602631 106.988510,283.361084 105.186951,282.880524 
	C96.988724,280.693878 88.879097,282.034882 80.702393,282.785675 
	C77.964523,283.037109 75.136642,282.059265 72.347107,282.039612 
	C59.608318,281.949799 46.868534,282.000885 33.678520,282.002258 
	C31.159313,269.296936 29.090693,256.590698 27.077084,243.445190 
	C34.799393,243.002274 42.469452,243.124008 50.133114,242.955231 
	C56.260086,242.820282 62.381859,242.017029 68.501366,242.067307 
	C80.457123,242.165527 92.408669,242.843811 104.363945,242.907455 
	C111.483604,242.945374 118.607056,242.270676 126.287407,242.207062 
	C129.033493,249.907791 130.684799,257.534760 133.568481,264.663147 
	C136.139053,271.017578 140.072601,276.820618 143.404663,282.867004 
z"/>
<path fill="#55B7FB" opacity="1.000000" stroke="none" 
	d="
M330.054871,52.579540 
	C323.020294,53.209259 315.771332,53.610531 308.518188,53.908245 
	C300.458008,54.239082 292.395538,54.577862 284.330841,54.703197 
	C281.056030,54.754089 277.773224,54.042389 274.493073,54.033497 
	C251.265533,53.970547 228.037064,53.893478 204.810318,54.043076 
	C192.425583,54.122841 180.045044,54.766857 167.659805,54.906471 
	C162.879974,54.960350 158.094879,54.106686 153.307663,54.050163 
	C145.965347,53.963474 138.619125,54.208538 131.063324,54.007774 
	C141.304855,48.772636 151.421417,42.849400 162.296799,39.167622 
	C175.442062,34.717396 189.087631,31.342243 202.771515,28.975014 
	C226.432480,24.881815 250.120392,26.038198 273.606995,31.321623 
	C293.326508,35.757618 312.326477,42.008774 330.054871,52.579540 
z"/>
<path fill="#FEFFFF" opacity="1.000000" stroke="none" 
	d="
M143.641907,283.097809 
	C140.072601,276.820618 136.139053,271.017578 133.568481,264.663147 
	C130.684799,257.534760 129.033493,249.907791 126.712585,242.154999 
	C122.876587,220.242188 127.725975,200.117615 136.937958,180.359436 
	C142.413467,172.773666 147.185074,164.902115 153.435257,158.466568 
	C167.003250,144.496201 183.681412,135.586273 202.978210,132.302933 
	C225.333160,128.499252 247.158615,130.954971 267.046570,141.993835 
	C276.300476,147.130234 283.949219,155.158524 292.625610,162.042770 
	C302.935425,173.507965 309.892670,186.490112 314.463654,201.232666 
	C318.498596,218.565247 317.799255,235.841797 317.910278,253.536499 
	C317.935852,272.357819 317.881134,290.716064 317.909424,309.536987 
	C317.927734,311.325012 317.815338,312.649963 317.806061,313.975677 
	C317.744354,322.790955 317.751526,322.791138 308.699127,322.790863 
	C280.275391,322.790009 251.845505,323.124664 223.431244,322.605042 
	C213.566711,322.424652 203.740891,320.127808 193.510193,318.682190 
	C182.922958,313.133331 172.150406,308.527496 162.709671,301.996460 
	C155.553040,297.045593 150.093735,289.641205 143.641907,283.097809 
z"/>
</svg>